<svg width="18" height="18" fill="none" xmlns="http://www.w3.org/2000/svg"><path fill-rule="evenodd" clip-rule="evenodd" d="M7.5.75a6.75 6.75 0 100 13.5 6.75 6.75 0 000-13.5zM1.678 7.193H4.59a9.43 9.43 0 011.284-4.42c.24-.413.48-.757.687-1.027a5.83 5.83 0 00-4.883 5.447zm2.927.92H1.702a5.833 5.833 0 004.86 5.141 9.64 9.64 0 01-.688-1.027 9.464 9.464 0 01-1.269-4.113zm.923 0h3.944a8.529 8.529 0 01-1.143 3.652 8.444 8.444 0 01-.8 1.154l-.029.036-.029-.035a8.524 8.524 0 01-.8-1.153 8.537 8.537 0 01-1.143-3.653zm3.96-.92H5.512a8.507 8.507 0 011.16-3.958c.292-.504.583-.893.8-1.154l.029-.036.029.035c.216.261.508.65.8 1.153a8.512 8.512 0 011.16 3.96zm.907.92a9.455 9.455 0 01-1.27 4.114 9.422 9.422 0 01-.686 1.027 5.833 5.833 0 004.858-5.14h-2.903zm2.927-.92H10.41a9.431 9.431 0 00-1.284-4.42 9.513 9.513 0 00-.687-1.027 5.83 5.83 0 014.883 5.447z" fill="#707070"/></svg>